<svg xmlns="http://www.w3.org/2000/svg" width="135.827" height="25.434" viewBox="0 0 135.827 25.434"><g fill="#FFF"><path d="M41.562 9.682c1.094-.185 2.633-.326 4.8-.326 2.19 0 3.774.42 4.823 1.282 1.002.768 1.654 2.073 1.654 3.61 0 1.562-.49 2.867-1.422 3.73-1.21 1.117-3.03 1.652-5.125 1.652-.468 0-.886-.023-1.212-.093v5.64h-3.518V9.682zm3.52 7.13c.3.07.674.095 1.187.095 1.885 0 3.05-.957 3.05-2.54 0-1.444-.978-2.307-2.77-2.307-.725 0-1.213.046-1.47.116v4.636zM54.517 9.704c1.143-.208 2.82-.348 4.732-.348 2.328 0 3.958.348 5.078 1.258.955.746 1.467 1.84 1.467 3.286 0 1.98-1.42 3.354-2.773 3.844v.07c1.096.443 1.702 1.467 2.097 2.912.488 1.795.954 3.847 1.257 4.45h-3.635c-.23-.44-.628-1.725-1.07-3.658-.443-1.98-1.12-2.493-2.587-2.517h-1.048v6.177h-3.52V9.704zm3.52 6.734h1.396c1.77 0 2.82-.886 2.82-2.26 0-1.42-.978-2.166-2.61-2.166-.862 0-1.35.046-1.607.116v4.31zM74.322 25.434c-4.637 0-7.387-3.517-7.387-7.99 0-4.71 3.03-8.228 7.644-8.228 4.822 0 7.455 3.61 7.455 7.945 0 5.176-3.1 8.273-7.69 8.273h-.023zm.162-2.82c2.4 0 3.775-2.26 3.775-5.337 0-2.818-1.33-5.242-3.776-5.242-2.445 0-3.82 2.377-3.82 5.312 0 2.96 1.422 5.268 3.798 5.268h.022zM95.292 24.758c-.63.304-2.12.676-4.007.676-5.432 0-8.227-3.4-8.227-7.898 0-5.36 3.82-8.32 8.576-8.32 1.84 0 3.238.374 3.867.7l-.743 2.796c-.7-.302-1.7-.583-2.983-.583-2.798 0-4.986 1.7-4.986 5.218 0 3.146 1.862 5.128 5.008 5.128 1.096 0 2.26-.21 2.985-.515l.512 2.798zM106.404 18.535h-5.777v3.73h6.455v2.912h-9.997V9.472h9.67v2.913h-6.128v3.26h5.777v2.89zM109.037 21.543c.934.49 2.426.98 3.94.98 1.63 0 2.492-.677 2.492-1.725 0-.957-.746-1.54-2.634-2.19-2.608-.932-4.335-2.38-4.335-4.684 0-2.682 2.262-4.708 5.944-4.708 1.794 0 3.074.35 4.006.792l-.79 2.842c-.606-.302-1.75-.744-3.263-.744-1.537 0-2.284.72-2.284 1.515 0 1.002.862 1.445 2.912 2.238 2.773 1.025 4.056 2.47 4.056 4.707 0 2.633-2.003 4.87-6.314 4.87-1.794 0-3.565-.49-4.45-.98l.72-2.912zM121.037 21.543c.934.49 2.424.98 3.94.98 1.63 0 2.49-.677 2.49-1.725 0-.957-.745-1.54-2.632-2.19-2.61-.932-4.333-2.38-4.333-4.684 0-2.682 2.26-4.708 5.94-4.708 1.793 0 3.076.35 4.008.792l-.792 2.842c-.604-.302-1.748-.744-3.262-.744-1.538 0-2.284.72-2.284 1.515 0 1.002.863 1.445 2.912 2.238 2.773 1.025 4.055 2.47 4.055 4.707 0 2.633-2.005 4.87-6.315 4.87-1.793 0-3.564-.49-4.45-.98l.722-2.912z"/></g><g fill="#FFF"><path d="M41.616 6.547c.496.26 1.29.52 2.092.52.867 0 1.324-.36 1.324-.917 0-.506-.395-.816-1.398-1.163-1.387-.497-2.302-1.263-2.302-2.488 0-1.425 1.2-2.5 3.155-2.5.953 0 1.633.186 2.13.42l-.422 1.51c-.32-.16-.93-.396-1.732-.396-.817 0-1.213.384-1.213.805 0 .532.458.767 1.547 1.187 1.474.543 2.155 1.312 2.155 2.5 0 1.4-1.065 2.587-3.355 2.587-.953 0-1.893-.26-2.363-.52l.382-1.547zM49.28 8.478L47.3.138h2.016l.632 3.426c.185 1.003.357 2.08.494 2.934h.024c.137-.916.334-1.92.544-2.958l.706-3.403h2.005l.67 3.515c.186.978.32 1.87.447 2.797h.023c.125-.93.31-1.907.482-2.91l.68-3.403h1.92l-2.154 8.34h-2.043L53.04 4.89c-.16-.843-.296-1.623-.395-2.576h-.026c-.148.94-.284 1.733-.483 2.575l-.792 3.588H49.28zM58.61.26C59.11.16 60.1.07 61.05.07c1.15 0 1.854.114 2.463.47.582.31.99.88.99 1.647 0 .73-.435 1.41-1.363 1.77v.023c.954.248 1.658.98 1.658 2.054 0 .768-.346 1.363-.866 1.77-.605.483-1.62.757-3.28.757-.927 0-1.62-.064-2.042-.124V.26zm1.87 3.18h.618c1.003 0 1.525-.408 1.525-1.028 0-.63-.482-.965-1.337-.965-.42 0-.658.024-.805.063v1.93zm0 3.7c.186.037.408.037.73.037.854 0 1.61-.333 1.61-1.212 0-.842-.756-1.174-1.697-1.174h-.643v2.35z"/></g><path fill="#FFF" d="M19.426 15.635l2.08-1.1c-.008-1.197-.21-2.347-.58-3.42l-2.307-.32c-.173-.35-.365-.688-.58-1.012l.882-2.17c-.748-.877-1.637-1.63-2.627-2.227l-1.975 1.24c-.366-.165-.744-.304-1.133-.416l-.72-2.226c-.558-.09-1.132-.136-1.715-.136-.583 0-1.16.046-1.717.136L8.32 6.21c-.392.113-.77.252-1.135.415L5.21 5.385c-.992.598-1.878 1.35-2.63 2.227l.884 2.17c-.212.325-.41.662-.58 1.013l-2.307.32c-.37 1.073-.57 2.223-.577 3.42l2.078 1.1c.045.37.108.73.197 1.082L.71 18.45c.423 1.103 1.025 2.124 1.768 3.02l2.3-.495c.255.236.522.46.8.666l-.088 2.342c1.015.568 2.13.98 3.31 1.195l1.442-1.855c.17.01.338.017.51.017.174 0 .342-.008.51-.018l1.444 1.855c1.18-.217 2.294-.627 3.31-1.195l-.09-2.342c.28-.207.546-.43.8-.666l2.3.495c.747-.897 1.347-1.917 1.772-3.022l-1.566-1.732c.087-.35.152-.712.194-1.08z"/><path fill="#FFF" d="M33.04 19.334l1.103 1c-.16.607-.402 1.18-.713 1.707l-1.483-.074c-.298.386-.645.73-1.032 1.028l.075 1.484c-.53.31-1.104.548-1.714.708l-.996-1.106c-.238.03-.48.05-.728.05-.246-.003-.49-.022-.728-.052l-.998 1.104c-.608-.16-1.182-.402-1.71-.713l.08-1.485c-.388-.297-.734-.643-1.03-1.03l-1.484.07c-.31-.527-.55-1.102-.708-1.71l1.105-.994c-.03-.24-.05-.48-.05-.728s.02-.49.052-.728l-1.103-.998c.16-.607.4-1.182.71-1.71l1.484.077c.298-.388.644-.733 1.03-1.03l-.072-1.483c.53-.31 1.104-.55 1.71-.708l.998 1.106c.238-.03.482-.05.728-.05.248 0 .49.02.73.05l1-1.102c.606.16 1.18.4 1.71.712l-.08 1.485c.386.296.733.644 1.028 1.03l1.484-.073c.31.53.55 1.105.708 1.713l-1.104.996c.032.236.05.48.048.726-.002.247-.022.49-.053.728zM25.755 10.355c.148-.09.285-.19.414-.295l1.185.244c.55-.602.93-1.318 1.135-2.083l-.848-.862c.036-.338.032-.678-.02-1.02l.798-.896c-.118-.373-.278-.74-.492-1.09-.212-.35-.466-.66-.745-.936l-1.163.3c-.28-.2-.58-.36-.896-.484l-.38-1.146c-.773-.17-1.586-.158-2.372.057l-.324 1.164c-.153.07-.304.145-.453.235-.146.09-.284.19-.414.294L20 3.59c-.552.603-.935 1.32-1.138 2.085l.847.86c-.035.338-.032.68.02 1.02l-.798.898c.118.374.28.74.492 1.088.213.354.466.66.746.938l1.164-.3c.28.202.58.36.896.485l.378 1.146c.775.17 1.59.157 2.374-.057l.324-1.165c.15-.068.303-.144.45-.233zM134.208 22.188c.273 0 .538.07.797.21.26.14.462.338.607.598.144.26.215.532.215.813 0 .277-.07.547-.213.804s-.342.458-.6.6c-.256.142-.525.214-.807.214-.28 0-.55-.072-.805-.214-.257-.142-.457-.343-.6-.6-.143-.257-.215-.526-.215-.805 0-.282.072-.554.217-.814.146-.26.348-.46.605-.598.26-.14.527-.21.798-.21zm0 .267c-.227 0-.447.06-.664.178-.215.116-.383.282-.505.5-.122.217-.184.44-.184.677 0 .232.062.456.18.67.12.215.285.38.5.5.217.12.44.18.672.18.234 0 .46-.06.673-.18.216-.12.383-.285.5-.5.12-.214.18-.437.18-.67 0-.235-.06-.46-.184-.678-.12-.217-.288-.383-.503-.5-.215-.116-.438-.177-.665-.177zm-.71 2.25V22.96h.6c.204 0 .354.02.445.05.09.03.164.088.22.168.053.08.08.166.08.258 0 .125-.046.237-.136.33-.092.094-.21.148-.36.16.06.024.108.057.147.092.07.068.156.185.256.346l.214.34h-.345l-.155-.275c-.12-.216-.22-.35-.294-.403-.05-.04-.125-.062-.225-.062h-.165v.74h-.28zm.282-.982h.34c.166 0 .276-.023.335-.072.06-.048.09-.112.09-.192 0-.05-.016-.096-.045-.14-.027-.04-.066-.07-.117-.09-.052-.02-.145-.03-.283-.03h-.32v.525z"/></svg>